<svg width="16" height="16" viewBox="0 0 16 16" fill="none" xmlns="http://www.w3.org/2000/svg">
<path d="M3.6275 12.5001C3.78245 12.061 4.0698 11.6807 4.44995 11.4117C4.8301 11.1427 5.28432 10.9983 5.75 10.9983C6.21568 10.9983 6.6699 11.1427 7.05005 11.4117C7.4302 11.6807 7.71755 12.061 7.8725 12.5001H15.5V14.0001H7.8725C7.71755 14.4393 7.4302 14.8195 7.05005 15.0885C6.6699 15.3575 6.21568 15.502 5.75 15.502C5.28432 15.502 4.8301 15.3575 4.44995 15.0885C4.0698 14.8195 3.78245 14.4393 3.6275 14.0001H0.5V12.5001H3.6275ZM8.1275 7.25012C8.28245 6.81097 8.5698 6.4307 8.94995 6.16171C9.3301 5.89273 9.78432 5.74828 10.25 5.74828C10.7157 5.74828 11.1699 5.89273 11.5501 6.16171C11.9302 6.4307 12.2175 6.81097 12.3725 7.25012H15.5V8.75012H12.3725C12.2175 9.18927 11.9302 9.56955 11.5501 9.83853C11.1699 10.1075 10.7157 10.252 10.25 10.252C9.78432 10.252 9.3301 10.1075 8.94995 9.83853C8.5698 9.56955 8.28245 9.18927 8.1275 8.75012H0.5V7.25012H8.1275ZM3.6275 2.00012C3.78245 1.56097 4.0698 1.1807 4.44995 0.911713C4.8301 0.64273 5.28432 0.498283 5.75 0.498283C6.21568 0.498283 6.6699 0.64273 7.05005 0.911713C7.4302 1.1807 7.71755 1.56097 7.8725 2.00012H15.5V3.50012H7.8725C7.71755 3.93927 7.4302 4.31955 7.05005 4.58853C6.6699 4.85751 6.21568 5.00196 5.75 5.00196C5.28432 5.00196 4.8301 4.85751 4.44995 4.58853C4.0698 4.31955 3.78245 3.93927 3.6275 3.50012H0.5V2.00012H3.6275ZM5.75 3.50012C5.94891 3.50012 6.13968 3.4211 6.28033 3.28045C6.42098 3.1398 6.5 2.94903 6.5 2.75012C6.5 2.55121 6.42098 2.36044 6.28033 2.21979C6.13968 2.07914 5.94891 2.00012 5.75 2.00012C5.55109 2.00012 5.36032 2.07914 5.21967 2.21979C5.07902 2.36044 5 2.55121 5 2.75012C5 2.94903 5.07902 3.1398 5.21967 3.28045C5.36032 3.4211 5.55109 3.50012 5.75 3.50012ZM10.25 8.75012C10.4489 8.75012 10.6397 8.6711 10.7803 8.53045C10.921 8.3898 11 8.19903 11 8.00012C11 7.80121 10.921 7.61044 10.7803 7.46979C10.6397 7.32914 10.4489 7.25012 10.25 7.25012C10.0511 7.25012 9.86032 7.32914 9.71967 7.46979C9.57902 7.61044 9.5 7.80121 9.5 8.00012C9.5 8.19903 9.57902 8.3898 9.71967 8.53045C9.86032 8.6711 10.0511 8.75012 10.25 8.75012ZM5.75 14.0001C5.94891 14.0001 6.13968 13.9211 6.28033 13.7805C6.42098 13.6398 6.5 13.449 6.5 13.2501C6.5 13.0512 6.42098 12.8604 6.28033 12.7198C6.13968 12.5791 5.94891 12.5001 5.75 12.5001C5.55109 12.5001 5.36032 12.5791 5.21967 12.7198C5.07902 12.8604 5 13.0512 5 13.2501C5 13.449 5.07902 13.6398 5.21967 13.7805C5.36032 13.9211 5.55109 14.0001 5.75 14.0001Z" fill="black"/>
</svg>
