<svg width="16" height="16" viewBox="0 0 16 16" fill="none" xmlns="http://www.w3.org/2000/svg">
<path d="M2.72377 2.82197L5.38327 12.1295L7.66327 7.56947L11.891 5.87822L2.72377 2.82197ZM1.17427 0.724975L15.2788 5.42597C15.3518 5.45017 15.4156 5.49623 15.4615 5.5579C15.5075 5.61957 15.5333 5.69388 15.5356 5.77075C15.5379 5.84763 15.5165 5.92334 15.4743 5.98765C15.4321 6.05195 15.3712 6.10172 15.2998 6.13022L8.75002 8.74998L5.43127 15.3875C5.39749 15.4551 5.34409 15.5109 5.27806 15.5476C5.21203 15.5843 5.13644 15.6002 5.06121 15.5933C4.98597 15.5863 4.9146 15.5568 4.85644 15.5085C4.79828 15.4603 4.75604 15.3956 4.73527 15.323L0.695015 1.18322C0.6763 1.11754 0.675882 1.04798 0.693805 0.982073C0.711728 0.916164 0.747312 0.856401 0.796715 0.809236C0.846119 0.76207 0.907467 0.729294 0.974136 0.714445C1.04081 0.699595 1.11026 0.703236 1.17502 0.724975H1.17427Z" fill="white"/>
</svg>
