<svg width="16" height="15" viewBox="0 0 16 15" fill="none" xmlns="http://www.w3.org/2000/svg">
<path d="M8.00075 1.39675C9.7625 -0.185 12.485 -0.1325 14.1823 1.56775C15.8788 3.26875 15.9373 5.97775 14.3593 7.74475L7.99925 14.1137L1.64075 7.74475C0.0627545 5.97775 0.122005 3.26425 1.81775 1.56775C3.5165 -0.13025 6.23375 -0.18725 8.00075 1.39675ZM13.1203 2.6275C11.9953 1.501 10.1803 1.45525 9.00275 2.51275L8.0015 3.41125L6.9995 2.5135C5.81825 1.4545 4.007 1.501 2.879 2.629C1.7615 3.7465 1.70525 5.53525 2.735 6.71725L8 11.9905L13.265 6.718C14.2955 5.53525 14.2393 3.74875 13.1203 2.6275Z" fill="#5E1FE6"/>
</svg>
