<svg width="24" height="18" viewBox="0 0 24 18" fill="none" xmlns="http://www.w3.org/2000/svg">
<path d="M12.485 0.121005L20.243 2.061C20.688 2.171 21 2.571 21 3.031V4H22C23.1 4 24 4.9 24 6V9C24 10.657 22.657 12 21 12H20.579C20.044 13.35 19.027 14.486 17.683 15.158L12.894 17.553C12.331 17.834 11.669 17.834 11.106 17.553L6.316 15.158C4.974 14.486 3.957 13.35 3.422 12H3C1.343 12 0 10.657 0 9V6C0 4.895 0.895 4 2 4H3V3.03C3 2.572 3.312 2.172 3.757 2.06L11.515 0.121005C11.833 0.0410046 12.167 0.0410046 12.485 0.121005ZM12 2.061L5 3.811V9.79101C5 11.307 5.856 12.691 7.211 13.37L12 15.764L16.789 13.37C18.144 12.692 19 11.307 19 9.792V3.812L12 2.062V2.061ZM3 6H2V9C2 9.552 2.448 10 3 10V6ZM22 6H21V10C21.552 10 22 9.552 22 9V6Z" fill="#5E1FE5"/>
</svg>
