<svg width="16" height="15" viewBox="0 0 16 15" fill="none" xmlns="http://www.w3.org/2000/svg">
<path d="M8.00075 1.39673C9.7625 -0.185015 12.485 -0.132515 14.1822 1.56773C15.8787 3.26873 15.9372 5.97773 14.3592 7.74473L7.99925 14.1137L1.64075 7.74473C0.0627488 5.97773 0.121999 3.26423 1.81775 1.56773C3.5165 -0.130265 6.23375 -0.187265 8.00075 1.39673ZM13.1202 2.62748C11.9952 1.50098 10.1802 1.45524 9.00275 2.51273L8.0015 3.41123L6.9995 2.51348C5.81825 1.45448 4.007 1.50098 2.879 2.62898C1.7615 3.74648 1.70525 5.53523 2.735 6.71723L8 11.9905L13.265 6.71798C14.2955 5.53523 14.2392 3.74873 13.1202 2.62748Z" fill="white"/>
</svg>
