<svg width="16" height="17" viewBox="0 0 16 17" fill="none" xmlns="http://www.w3.org/2000/svg">
<path d="M2 4.35671V13.9747L5.79875 12.3472L10.2987 14.5972L14 13.0095V3.39221L14.9772 2.97371C15.0343 2.94925 15.0966 2.93934 15.1584 2.94487C15.2202 2.9504 15.2797 2.9712 15.3316 3.00539C15.3834 3.03959 15.4259 3.08612 15.4553 3.14081C15.4847 3.19549 15.5001 3.25662 15.5 3.31871V13.9995L10.25 16.2495L5.75 13.9995L1.02275 16.0252C0.965685 16.0497 0.90344 16.0596 0.841599 16.0541C0.779759 16.0485 0.720259 16.0277 0.66844 15.9935C0.616621 15.9593 0.574104 15.9128 0.544705 15.8581C0.515306 15.8034 0.499945 15.7423 0.5 15.6802V4.99946L2 4.35671ZM11.1823 8.18171L8 11.3632L4.81775 8.18171C4.18849 7.55234 3.75998 6.75052 3.58641 5.87763C3.41284 5.00473 3.502 4.09997 3.84262 3.27775C4.18323 2.45553 4.76001 1.75277 5.50001 1.25833C6.24002 0.763901 7.11002 0.5 8 0.5C8.88998 0.5 9.75998 0.763901 10.5 1.25833C11.24 1.75277 11.8168 2.45553 12.1574 3.27775C12.498 4.09997 12.5872 5.00473 12.4136 5.87763C12.24 6.75052 11.8115 7.55234 11.1823 8.18171V8.18171ZM8 9.24221L10.121 7.12046C10.5406 6.70094 10.8265 6.16639 10.9423 5.58442C11.0581 5.00246 10.9988 4.39921 10.7717 3.85098C10.5447 3.30275 10.1602 2.83416 9.6668 2.50447C9.17344 2.17479 8.59338 1.99882 8 1.99882C7.40662 1.99882 6.82656 2.17479 6.3332 2.50447C5.83983 2.83416 5.45531 3.30275 5.22827 3.85098C5.00124 4.39921 4.94188 5.00246 5.05771 5.58442C5.17354 6.16639 5.45935 6.70094 5.879 7.12046L8 9.24221Z" fill="black"/>
</svg>
