<svg width="12" height="17" viewBox="0 0 12 17" fill="none" xmlns="http://www.w3.org/2000/svg">
<path d="M2.71274 5.534L5.11649 3.788C5.38633 3.59053 5.71454 3.48913 6.04874 3.5C6.45637 3.51017 6.8507 3.64708 7.17692 3.89171C7.50314 4.13634 7.74504 4.47654 7.86899 4.865C8.00849 5.30225 8.13599 5.59775 8.25149 5.7515C8.60047 6.2171 9.05317 6.59495 9.57366 6.85507C10.0942 7.11519 10.6681 7.25041 11.25 7.25V8.75C10.4755 8.75084 9.71038 8.57996 9.00981 8.24965C8.30925 7.91934 7.69063 7.43782 7.19849 6.83975L6.67574 9.806L8.22149 11.1035L9.88874 15.6845L8.47874 16.1975L6.94874 11.9945L4.40624 9.86075C4.19759 9.69226 4.03792 9.47092 3.94387 9.21977C3.84982 8.96862 3.82483 8.69684 3.87149 8.43275L4.25324 6.269L3.74549 6.638L2.15024 8.834L0.936737 7.952L2.69999 5.525L2.71274 5.534ZM7.12499 3.125C6.72716 3.125 6.34563 2.96696 6.06433 2.68566C5.78302 2.40436 5.62499 2.02282 5.62499 1.625C5.62499 1.22718 5.78302 0.845644 6.06433 0.56434C6.34563 0.283035 6.72716 0.125 7.12499 0.125C7.52281 0.125 7.90434 0.283035 8.18565 0.56434C8.46695 0.845644 8.62499 1.22718 8.62499 1.625C8.62499 2.02282 8.46695 2.40436 8.18565 2.68566C7.90434 2.96696 7.52281 3.125 7.12499 3.125ZM4.89599 13.0107L2.48549 15.8832L1.33649 14.9195L3.56849 12.26L4.12799 10.625L5.47124 11.75L4.89599 13.0107Z" fill="black"/>
</svg>
