<svg width="9" height="12" viewBox="0 0 9 12" fill="none" xmlns="http://www.w3.org/2000/svg">
<path d="M6.2955 6.00002L1.5 2.80277V9.19727L6.2955 6.00002ZM8.532 6.31202L0.58275 11.6115C0.526279 11.6491 0.460673 11.6707 0.392919 11.6739C0.325164 11.6771 0.257799 11.6619 0.197999 11.6299C0.138199 11.5979 0.0882027 11.5503 0.0533352 11.4921C0.0184677 11.4339 3.50403e-05 11.3674 0 11.2995V0.700521C3.50403e-05 0.632689 0.0184677 0.566137 0.0533352 0.507953C0.0882027 0.449769 0.138199 0.402132 0.197999 0.370115C0.257799 0.338098 0.325164 0.322901 0.392919 0.326143C0.460673 0.329384 0.526279 0.350942 0.58275 0.388521L8.532 5.68802C8.58336 5.72227 8.62547 5.76866 8.6546 5.82309C8.68372 5.87752 8.69896 5.93829 8.69896 6.00002C8.69896 6.06175 8.68372 6.12252 8.6546 6.17695C8.62547 6.23138 8.58336 6.27777 8.532 6.31202Z" fill="black"/>
</svg>
