<svg width="11" height="12" viewBox="0 0 11 12" fill="none" xmlns="http://www.w3.org/2000/svg">
<path d="M2 6.50025L9.66725 11.6115C9.72372 11.6491 9.78933 11.6706 9.85708 11.6739C9.92484 11.6771 9.9922 11.6619 10.052 11.6299C10.1118 11.5979 10.1618 11.5503 10.1967 11.4921C10.2315 11.4339 10.25 11.3673 10.25 11.2995V0.7005C10.25 0.632668 10.2315 0.566117 10.1967 0.507932C10.1618 0.449748 10.1118 0.402111 10.052 0.370094C9.9922 0.338078 9.92484 0.322881 9.85708 0.326122C9.78933 0.329363 9.72372 0.350921 9.66725 0.3885L2 5.49975V0.75C2 0.551088 1.92098 0.360322 1.78033 0.21967C1.63968 0.0790178 1.44891 0 1.25 0C1.05109 0 0.860322 0.0790178 0.719669 0.21967C0.579017 0.360322 0.5 0.551088 0.5 0.75V11.25C0.5 11.4489 0.579017 11.6397 0.719669 11.7803C0.860322 11.921 1.05109 12 1.25 12C1.44891 12 1.63968 11.921 1.78033 11.7803C1.92098 11.6397 2 11.4489 2 11.25V6.50025Z" fill="black"/>
</svg>
