<svg width="18" height="14" viewBox="0 0 18 14" fill="none" xmlns="http://www.w3.org/2000/svg">
<path d="M4.41675 10H1.5C1.30109 10 1.11032 9.92098 0.96967 9.78033C0.829018 9.63968 0.75 9.44891 0.75 9.25V4.75C0.75 4.55109 0.829018 4.36032 0.96967 4.21967C1.11032 4.07902 1.30109 4 1.5 4H4.41675L8.38725 0.751001C8.44219 0.705961 8.50879 0.677453 8.5793 0.668796C8.64981 0.660138 8.72133 0.671687 8.78553 0.702099C8.84973 0.73251 8.90398 0.780533 8.94195 0.840575C8.97992 0.900618 9.00005 0.97021 9 1.04125V12.9588C9.00005 13.0298 8.97992 13.0994 8.94195 13.1594C8.90398 13.2195 8.84973 13.2675 8.78553 13.2979C8.72133 13.3283 8.64981 13.3399 8.5793 13.3312C8.50879 13.3225 8.44219 13.294 8.38725 13.249L4.4175 10H4.41675ZM14.5545 13.1005L13.4925 12.0385C14.2035 11.4059 14.7723 10.6298 15.1614 9.76127C15.5505 8.89278 15.7511 7.95167 15.75 7C15.7509 5.99957 15.529 5.01149 15.1004 4.10753C14.6718 3.20357 14.0472 2.40643 13.272 1.774L14.337 0.709001C15.2509 1.48266 15.9849 2.44636 16.488 3.5329C16.9912 4.61943 17.2512 5.80264 17.25 7C17.25 9.41725 16.2105 11.5915 14.5545 13.1005ZM11.8972 10.4433L10.8307 9.37675C11.1949 9.09678 11.4897 8.7368 11.6924 8.32467C11.8952 7.91254 12.0004 7.4593 12 7C12 5.9275 11.4375 4.98625 10.59 4.456L11.6693 3.37675C12.2373 3.79464 12.6991 4.34039 13.0171 4.96984C13.3352 5.59929 13.5006 6.29476 13.5 7C13.5 8.3815 12.8775 9.6175 11.8972 10.4433Z" fill="black"/>
</svg>
