<svg width="16" height="14" viewBox="0 0 16 14" fill="none" xmlns="http://www.w3.org/2000/svg">
<path d="M8.29998 8.14975L12.05 13.15C12.0918 13.2057 12.1172 13.272 12.1235 13.3413C12.1297 13.4107 12.1165 13.4804 12.0854 13.5427C12.0542 13.605 12.0064 13.6574 11.9471 13.694C11.8879 13.7306 11.8196 13.75 11.75 13.75H4.24998C4.18034 13.75 4.11207 13.7306 4.05283 13.694C3.99359 13.6574 3.94572 13.605 3.91457 13.5427C3.88343 13.4804 3.87024 13.4107 3.8765 13.3413C3.88275 13.272 3.9082 13.2057 3.94998 13.15L7.69998 8.14975C7.73491 8.10318 7.78021 8.06537 7.83228 8.03934C7.88435 8.0133 7.94177 7.99975 7.99998 7.99975C8.0582 7.99975 8.11562 8.0133 8.16769 8.03934C8.21976 8.06537 8.26505 8.10318 8.29998 8.14975ZM7.99998 10.2475L6.49998 12.25H9.49998L7.99998 10.2475ZM12.5 12.25V10.75H14V1.75H1.99998V10.75H3.49998V12.25H1.24398C1.14583 12.2498 1.04868 12.2302 0.958111 12.1924C0.867541 12.1546 0.785335 12.0992 0.716209 12.0295C0.647082 11.9598 0.592397 11.8772 0.555292 11.7863C0.518186 11.6955 0.49939 11.5982 0.499983 11.5V1C0.499983 0.586 0.841233 0.25 1.24398 0.25H14.756C15.167 0.25 15.5 0.58375 15.5 1V11.5C15.5 11.914 15.1587 12.25 14.756 12.25H12.5Z" fill="black"/>
</svg>
