<svg width="16" height="16" viewBox="0 0 16 16" fill="none" xmlns="http://www.w3.org/2000/svg">
<path d="M2.72377 2.82199L5.38327 12.1295L7.66327 7.56949L11.891 5.87824L2.72377 2.82199ZM1.17427 0.72499L15.2788 5.42599C15.3518 5.45019 15.4156 5.49624 15.4615 5.55792C15.5075 5.61959 15.5333 5.6939 15.5356 5.77077C15.5379 5.84764 15.5165 5.92336 15.4743 5.98766C15.4321 6.05196 15.3712 6.10174 15.2998 6.13024L8.75002 8.74999L5.43127 15.3875C5.39749 15.4551 5.34409 15.5109 5.27806 15.5476C5.21203 15.5843 5.13644 15.6002 5.06121 15.5933C4.98597 15.5863 4.9146 15.5568 4.85644 15.5085C4.79828 15.4603 4.75604 15.3956 4.73527 15.323L0.695015 1.18324C0.6763 1.11755 0.675882 1.048 0.693805 0.982089C0.711728 0.916179 0.747312 0.856416 0.796715 0.809251C0.846119 0.762086 0.907467 0.72931 0.974136 0.71446C1.04081 0.69961 1.11026 0.703251 1.17502 0.72499H1.17427Z" fill="black"/>
</svg>
