<svg width="49" height="121" viewBox="0 0 49 121" fill="none" xmlns="http://www.w3.org/2000/svg">
<path fill-rule="evenodd" clip-rule="evenodd" d="M26.0436 0H24.3451V9.20666e-05H22.6467V16.1359H20.099V25.4777L10.191 54.9184H8.20944L5.66169 35.9518V27.7424H4.52935V35.9518L1.69851 54.9184L0 56.9L1.69851 58.8816L0 62.5617V69.0727L1.69851 71.6204V83.51L5.66169 89.1716V120.215L24.3452 108.704L43.0287 120.215V89.1716L46.9919 83.5099V71.6203L48.6904 69.0726V62.5616L46.9919 58.8815L48.6904 56.8999L46.9919 54.9184L44.161 35.9517V27.7423H43.0287V35.9517L40.4809 54.9184H38.4993L28.5914 25.4776V16.1358H26.0436V0ZM24.345 99.3627C19.6547 99.3627 15.8524 95.5605 15.8524 90.8702C15.8524 86.1799 19.6547 82.3777 24.345 82.3777C29.0352 82.3777 32.8375 86.1799 32.8375 90.8702C32.8375 95.5605 29.0352 99.3627 24.345 99.3627Z" fill="white"/>
<path fill-rule="evenodd" clip-rule="evenodd" d="M26.0436 0H24.3451V9.20666e-05H22.6467V16.1359H20.099V25.4777L10.191 54.9184H8.20944L5.66169 35.9518V27.7424H4.52935V35.9518L1.69851 54.9184L0 56.9L1.69851 58.8816L0 62.5617V69.0727L1.69851 71.6204V83.51L5.66169 89.1716V120.215L24.3452 108.704L43.0287 120.215V89.1716L46.9919 83.5099V71.6203L48.6904 69.0726V62.5616L46.9919 58.8815L48.6904 56.8999L46.9919 54.9184L44.161 35.9517V27.7423H43.0287V35.9517L40.4809 54.9184H38.4993L28.5914 25.4776V16.1358H26.0436V0ZM24.345 99.3627C19.6547 99.3627 15.8524 95.5605 15.8524 90.8702C15.8524 86.1799 19.6547 82.3777 24.345 82.3777C29.0352 82.3777 32.8375 86.1799 32.8375 90.8702C32.8375 95.5605 29.0352 99.3627 24.345 99.3627Z" fill="white"/>
<g style="mix-blend-mode:darken">
<path d="M43.0836 97L24.2836 108.7L43.0836 120.5V97Z" fill="url(#paint0_linear_128_4081)"/>
</g>
<defs>
<linearGradient id="paint0_linear_128_4081" x1="26.5836" y1="104" x2="38.5836" y2="109" gradientUnits="userSpaceOnUse">
<stop stop-color="#BDB3D0"/>
<stop offset="1" stop-color="#DED9E8" stop-opacity="0"/>
</linearGradient>
</defs>
</svg>
