<svg width="15" height="16" viewBox="0 0 15 16" fill="none" xmlns="http://www.w3.org/2000/svg">
<path d="M2.41023 2.82199L4.84592 12.1295L6.93404 7.56949L10.806 5.87824L2.41023 2.82199ZM0.991125 0.72499L13.9087 5.42599C13.9755 5.45019 14.0339 5.49624 14.076 5.55792C14.1181 5.61959 14.1418 5.6939 14.1439 5.77077C14.146 5.84764 14.1264 5.92336 14.0878 5.98766C14.0491 6.05196 13.9933 6.10174 13.9279 6.13024L7.92934 8.74999L4.88988 15.3875C4.85895 15.4551 4.81004 15.5109 4.74957 15.5476C4.68909 15.5843 4.61986 15.6002 4.55096 15.5933C4.48206 15.5863 4.41669 15.5568 4.36342 15.5085C4.31016 15.4603 4.27148 15.3956 4.25245 15.323L0.552206 1.18324C0.535066 1.11755 0.534683 1.048 0.551097 0.982089C0.567512 0.916179 0.600101 0.856416 0.645348 0.809251C0.690594 0.762086 0.746779 0.72931 0.807837 0.71446C0.868896 0.69961 0.93251 0.703251 0.991812 0.72499H0.991125Z" fill="#5E1FE5"/>
</svg>
